<?xml version="1.0" encoding="UTF-8" standalone="no"?>
<!-- Created with Inkscape (http://www.inkscape.org/) -->

<svg
   width="10.583336mm"
   height="10.583328mm"
   viewBox="0 0 10.583336 10.583328"
   version="1.1"
   id="svg5"
   xml:space="preserve"
   xmlns:xlink="http://www.w3.org/1999/xlink"
   xmlns="http://www.w3.org/2000/svg"
   xmlns:svg="http://www.w3.org/2000/svg"><defs
     id="defs2"><pattern
       xlink:href="#Strips1_16"
       id="pattern4095"
       patternTransform="matrix(9.9916071,0,0,10.208347,-92.562898,-139.60265)" /><pattern
       patternUnits="userSpaceOnUse"
       width="17"
       height="1"
       patternTransform="translate(0,0) scale(10,10)"
       id="Strips1_16"><rect
         style="fill:black;stroke:none"
         x="0"
         y="-0.5"
         width="1"
         height="2"
         id="rect3155" /></pattern></defs><rect
     style="fill:url(#pattern4095);fill-opacity:1;fill-rule:nonzero;stroke-width:0.267213"
     id="rect2123"
     width="10.583333"
     height="10.583333"
     x="-2.1304966e-06"
     y="3.8628914e-06" /><g
     id="layer1"
     transform="translate(-92.592913,-136.70556)"><g
       id="g1940"
       transform="matrix(0.22280702,0,0,0.22280702,72.944695,109.37235)"><path
         fill="#1565c0"
         d="M 10,12 13,37 4.981,28.981 C 3.792,27.792 3.473,25.985 4.185,24.461 Z"
         id="path9"
         transform="matrix(0.99500695,0,0,0.99500695,89.14461,122.54648)" /><path
         fill="#42a5f5"
         d="M 27.319,6.319 C 26.474,5.474 25.329,5 24.135,5 23.39,5 22.656,5.185 22,5.538 L 10,12 v 20.343 c 0,1.061 0.421,2.078 1.172,2.828 L 13,37 h 22 v -5 l 7,-11 z"
         id="path11"
         transform="matrix(0.99500695,0,0,0.99500695,89.14461,122.54648)" /><path
         fill="#1565c0"
         d="m 10,12 h 21.343 c 1.061,0 2.078,0.421 2.828,1.172 L 42,21 v 16 h -7 z"
         id="path13"
         transform="matrix(0.99500695,0,0,0.99500695,89.14461,122.54648)" /><polygon
         fill="#85cbf8"
         points="35,37 13,37 19,43 35,43 "
         id="polygon15"
         transform="matrix(0.99500695,0,0,0.99500695,89.14461,122.54648)" /><path
         d="m 100.19988,154.15528 v 1.17201 h -1.172009 c -0.351621,0 -0.586024,0.23428 -0.586024,0.58598 v 2.93004 h -0.585984 v -1.17201 c 0,-0.35162 -0.23429,-0.58602 -0.586024,-0.58602 h -3.515988 c -0.351621,0 -0.586023,0.23428 -0.586023,0.58602 v 3.51603 c 0,0.35161 0.234289,0.58602 0.586023,0.58602 h 3.515988 c 0.351621,0 0.586024,-0.23429 0.586024,-0.58602 v -1.17202 h 0.585984 v 2.93005 c 0,0.35162 0.234289,0.58602 0.586024,0.58602 h 1.172009 v 1.17197 c 0,0.35163 0.23429,0.58603 0.58603,0.58603 h 3.51598 c 0.35162,0 0.58602,-0.23429 0.58602,-0.58603 v -3.51602 c 0,-0.35162 -0.23428,-0.58598 -0.58602,-0.58598 h -3.51598 c -0.35163,0 -0.58603,0.23428 -0.58603,0.58598 v 1.17201 h -0.586024 v -5.86005 h 0.586024 v 1.17201 c 0,0.35162 0.23429,0.58599 0.58603,0.58599 h 3.51598 c 0.35162,0 0.58602,-0.23429 0.58602,-0.58599 v -3.51602 c 0,-0.35162 -0.23428,-0.58598 -0.58602,-0.58598 h -3.51598 c -0.35163,0 -0.58603,0.23428 -0.58603,0.58598 z m 1.17201,7.61807 h 2.34401 v 2.34402 h -2.34401 z m -4.688036,-1.172 h -2.344017 v -2.34406 h 2.344017 z m 7.032046,-5.86005 v 2.34398 h -2.34401 v -2.34398 z"
         id="path29"
         style="fill:#ffff00;stroke-width:0.0209288" /></g></g></svg>
